# xmcd
# 
# Track frame offsets:
#     183
#     30000
#     58858
#     88883
#     178318
#     229683
#     257208
#     287410
#     313513
# 
# Disc length: 4540
# 
# Revision: 3
# Processed by: cddbd v1.5.2PL0 Copyright (c) Steve Scherf et al.
# Submitted via: fre:ac v1.0.17
# 
DISCID=7511ba09
DTITLE=Various Artist - Live at Ronnie Scott's
DYEAR=0
DGENRE=Jazz
TTITLE0=CHICO FREEMAN - Groovin' Late
TTITLE1=CHICO FREEMAN - What if
TTITLE2=ART BLAKEY - I Want to Talk About You
TTITLE3=ART BLAKEY - Two of A Kind
TTITLE4=CHICO FREEMAN - In A Sentimental Mood
TTITLE5=CHET BAKER - If I Should Lose You
TTITLE6=CHET BAKER - Night Bird
TTITLE7=CHET BAKER - Shifting Down
TTITLE8=CHET BAKER - But Not for Me
EXTD=ID3G:   0
EXTT0=
EXTT1=
EXTT2=
EXTT3=
EXTT4=
EXTT5=
EXTT6=
EXTT7=
EXTT8=
PLAYORDER=
